<?xml version="1.0" encoding="utf-8" ?><svg xmlns="http://www.w3.org/2000/svg" xmlns:xlink="http://www.w3.org/1999/xlink" width="1024" height="1024" viewBox="0 0 1024 1024"><path fill="white" d="M0 0L1024 0L1024 1024L0 1024L0 0Z"/><defs><linearGradient id="gradient_0" gradientUnits="userSpaceOnUse" x1="726.18335" y1="565.96619" x2="291.93091" y2="460.3049"><stop offset="0" stop-color="#D98202"/><stop offset="1" stop-color="#F3BA01"/></linearGradient></defs><path fill="url(#gradient_0)" d="M511.586 159.329C515.255 180.842 518.582 202.412 521.568 224.031C523.404 237.413 526.226 260.631 529.387 273.32C532.225 264.266 540.322 248.82 544.336 239.482C554.71 215.347 566.226 191.597 576.587 167.427L568.86 238.711C567.853 248.441 566.25 270.618 564.358 279.22C572.955 267.851 584.076 255.308 593.29 244.075C607.722 226.481 623.7 205.07 639.04 188.559C634.75 197.579 630.952 207.261 627.067 216.516L606.185 266.193C602.572 274.68 597.274 288.593 592.901 295.953C602.072 287.975 613.218 279.617 622.844 272.024L665.929 237.969C673.616 231.982 682.808 225.22 690.093 219.021C688.089 223.309 681.36 232.487 678.353 236.739L655.044 269.43L634.097 299.147C630.949 303.594 626.182 310.915 622.63 314.647C632.804 308.957 643.856 303.826 654.265 298.466C681.837 284.27 710.185 270.727 737.494 256.09L684.016 307.491C671.359 319.767 659.253 332.269 646.078 344.002C675.29 332.694 705.9 323.378 735.477 312.969C748.449 308.403 765.965 303.73 778.14 298.725C764.262 308.984 745.932 320.627 731.266 330.283C708.133 345.514 684.563 361.8 661.208 376.479C670.992 374.193 683.528 372.357 693.716 370.505C720.625 365.633 747.58 361.016 774.576 356.657C784.668 354.976 798.723 353.273 808.214 351.133C797.931 356.794 778.106 364.747 767.053 369.358C744.014 378.948 721.057 388.732 698.184 398.71C687.901 403.096 674.961 407.762 665.215 412.608C678.771 410.891 693.216 411.471 706.979 411.184L789 409.948C801.224 409.805 815.374 410.294 827.419 409.683C811.291 414.45 788.639 419.19 771.689 422.996C737.026 430.78 700.127 440.129 665.377 446.647C680.267 447.368 695.019 449.895 709.819 451.943L770.143 460.423L804.526 465.751C812.968 466.998 820.945 467.541 829.328 469.713L713.292 476.027C696.257 476.964 677.861 479.015 660.948 479.226C699.385 490.843 737.566 504.704 775.667 517.43C788.17 521.605 802.043 527.111 814.369 530.932C798.676 529.848 658.654 510.034 656.115 511.266C668.077 514.355 682.285 519.563 692.939 525.697C712.075 535.546 730.362 548.747 747.47 561.669C756.089 568.179 766.61 574.885 774.83 581.677C757.604 573.72 739.871 566.45 722.687 558.588L716.381 556.356C704.956 554.051 696.269 553.046 684.881 556.611C682.098 557.482 677.656 559.294 675.244 559.971C670.652 560.448 657.673 570.37 654.532 573.67C649.48 578.081 647.091 581.137 642.915 586.364C638.469 590.505 630.097 604.162 628.238 609.989C617.842 631.568 608.437 652.662 592.012 670.598C577.648 686.285 557.692 695.45 542.992 710.558C525.655 728.377 519.822 755.028 517.793 779.09C515.949 798.034 513.724 820.377 512.682 839.275C511.388 833.931 510.557 825.964 509.888 820.303C508.555 808.245 507.316 796.178 506.172 784.101C502.892 750.824 498.141 722.741 469.882 700.736C460.349 693.313 446.97 685.175 438.356 677.137C420.208 660.202 405.436 633.542 395.688 610.752C392.71 603.924 385.748 592.552 380.89 587.165C377.917 582.581 372.862 577.519 368.984 573.743C363.066 568.952 355.454 563.517 348.342 560.739C330.976 552.512 316.554 553.135 298.987 559.301C298.024 559.893 287.595 564.39 285.81 565.196C273.84 570.631 261.816 575.944 249.74 581.137C258.255 574.215 266.952 568.722 275.633 562.273C289.018 552.329 302.079 542.306 316.428 533.698C319.619 531.784 325.093 528.273 328.436 527.158C339.047 520.085 354.565 514.964 366.792 511.414C364.22 511.036 346.36 513.829 341.645 514.403C310.68 517.944 279.764 521.903 248.906 526.281C236.161 527.973 221.116 529.036 208.929 531.235C250.935 516.166 293.142 501.663 335.539 487.731C344.524 484.79 353.72 482.215 362.661 479.242C349.001 478.997 333.599 477.434 319.748 476.587L236.999 471.974C223.474 471.255 208.031 470.039 194.724 469.753C201.589 467.962 209.456 466.918 216.531 465.822C228.186 464.024 239.85 462.286 251.523 460.607C271.359 457.563 291.234 454.774 311.142 452.239C326.947 450.103 341.698 447.957 357.587 446.67C323.258 439.777 287.725 431.134 253.528 423.317C235.785 419.261 214.618 414.88 197.291 410.014C232.398 409.351 268.865 410.842 304.106 411.194C318.539 411.338 345.058 410.81 357.828 412.677C327.569 399.403 297.191 386.403 266.698 373.679C250.11 366.634 232.206 359.356 216.046 351.454C227.562 353.542 239.927 354.992 251.706 356.941C275.888 360.971 300.033 365.224 324.137 369.698C334.5 371.555 351.381 373.828 360.743 376.177C337.298 360.201 313.735 344.398 290.055 328.771C274.782 318.722 259.825 309.26 244.865 298.663C276.829 309.005 308.663 319.743 340.361 330.874C352.175 335.025 364.577 338.846 376.246 343.398L325.282 294.279C314.819 284.373 294.919 266.262 285.767 255.818C300.135 264.297 319.549 273.422 334.817 281.098L398.974 313.665C394.984 308.81 390.427 301.816 386.736 296.499L366.874 267.848C355.43 251.164 343.489 235.491 332.088 218.31C356.438 236.892 380.544 255.791 404.4 275.002C412.674 281.692 421.908 287.975 429.535 295.262C422.835 281.548 416.384 265.186 410.502 250.978C401.919 230.244 392.518 209.153 384.144 188.43C400.755 207.751 417.119 227.283 433.232 247.022C440.369 255.622 454.12 271.2 459.498 280.054C458.318 274.544 457.706 268.434 457.144 262.807C454.386 235.188 450.864 207.679 447.533 180.128C447.007 175.782 446.673 171.282 445.676 167.024C449.456 173.12 453.767 183.011 456.852 189.731C462.877 202.588 468.665 215.555 474.214 228.624C480.688 243.571 488.161 258.731 494.289 273.694C495.442 263.866 497.547 253.255 499.08 243.33C501.828 225.63 504.482 207.916 507.044 190.189C508.47 180.892 510.778 168.454 511.586 159.329Z"/><path fill="#FED501" d="M511.586 159.329C515.255 180.842 518.582 202.412 521.568 224.031C523.404 237.413 526.226 260.631 529.387 273.32C532.225 264.266 540.322 248.82 544.336 239.482C554.71 215.347 566.226 191.597 576.587 167.427L568.86 238.711C567.853 248.441 566.25 270.618 564.358 279.22C572.955 267.851 584.076 255.308 593.29 244.075C607.722 226.481 623.7 205.07 639.04 188.559C634.75 197.579 630.952 207.261 627.067 216.516L606.185 266.193C602.572 274.68 597.274 288.593 592.901 295.953C602.072 287.975 613.218 279.617 622.844 272.024L665.929 237.969C673.616 231.982 682.808 225.22 690.093 219.021C688.089 223.309 681.36 232.487 678.353 236.739L655.044 269.43L634.097 299.147C630.949 303.594 626.182 310.915 622.63 314.647C632.804 308.957 643.856 303.826 654.265 298.466C681.837 284.27 710.185 270.727 737.494 256.09L684.016 307.491C671.359 319.767 659.253 332.269 646.078 344.002C675.29 332.694 705.9 323.378 735.477 312.969C748.449 308.403 765.965 303.73 778.14 298.725C764.262 308.984 745.932 320.627 731.266 330.283C708.133 345.514 684.563 361.8 661.208 376.479C670.992 374.193 683.528 372.357 693.716 370.505C720.625 365.633 747.58 361.016 774.576 356.657C784.668 354.976 798.723 353.273 808.214 351.133C797.931 356.794 778.106 364.747 767.053 369.358C744.014 378.948 721.057 388.732 698.184 398.71C687.901 403.096 674.961 407.762 665.215 412.608C678.771 410.891 693.216 411.471 706.979 411.184L789 409.948C801.224 409.805 815.374 410.294 827.419 409.683C811.291 414.45 788.639 419.19 771.689 422.996C737.026 430.78 700.127 440.129 665.377 446.647C680.267 447.368 695.019 449.895 709.819 451.943L770.143 460.423L804.526 465.751C812.968 466.998 820.945 467.541 829.328 469.713L713.292 476.027C696.257 476.964 677.861 479.015 660.948 479.226C699.385 490.843 737.566 504.704 775.667 517.43C788.17 521.605 802.043 527.111 814.369 530.932C798.676 529.848 658.654 510.034 656.115 511.266C652.358 510.722 644.146 507.784 639.767 506.791C626.329 503.743 607.534 502.292 594.102 505.381C598.539 501.005 602.856 494.101 606.88 488.957C614.91 478.693 626.473 470.663 638.222 465.216C641.495 463.699 645.117 462.73 648.506 461.289L648.923 461.109C628.838 458.858 612.946 459.801 594.99 469.21C594.935 465.975 595.034 462.551 595.079 459.301C593.079 460.907 591.975 462.121 589.771 463.667L589.835 462.838C592.333 459.702 594.787 454.939 597.584 451.118C609.75 434.493 622.914 422.393 641.58 413.577C622.43 415.426 602.559 414.503 586.725 429.214C587.926 408.285 604.152 386.588 617.943 371.654C604.667 377.438 584.228 389.761 576.327 401.738C579.382 378.842 586.077 362.312 596.014 341.557C599.384 334.519 605.431 324.618 607.902 317.557C594.96 334.852 578.342 350.311 566.84 368.93C564.512 372.699 559.495 378.303 558.491 382.488L558.101 382.686C558.009 381.937 561.173 371.622 561.539 369.743C566.115 346.184 570.221 323.275 580.519 301.354C581.36 299.563 585.806 291.836 585.228 290.413C583.022 292.812 576.402 304.086 574.189 307.81C563.795 325.304 553.869 335.717 538.874 349.031C538.434 347.912 542.373 341.12 543.058 339.398C548.145 326.612 548.773 314.302 549.607 300.761C550.462 286.891 551.957 272.821 551.266 258.839C546.395 281.756 541.096 304.61 533.305 326.726C532.36 313.301 525.281 302.385 520.811 290.326C515.797 276.491 512.692 262.037 511.581 247.364C510.006 259.82 508 273.339 504.143 285.292C500 298.132 491.298 312.558 490.096 325.875C483.481 306.335 478.146 287.443 473.816 267.283C473.214 264.484 472.419 261.347 471.365 258.698C472.112 272.462 473.033 286.216 474.128 299.956C475.161 314.136 475.961 337.994 486.146 348.855C483.823 348.28 480.636 344.815 478.689 343.17C459.563 327.017 448.421 305.931 434.178 285.764C440.431 300.485 448.737 314.474 452.799 330.271C457.367 348.034 458.701 363.434 465.081 380.762C463.44 379.577 459.103 371.504 456.59 368.371C443.6 352.172 429.701 332.425 414.806 318.06C424.838 336.656 435.616 358.145 441.968 378.271C444.168 385.24 445.058 393.078 446.612 400.282C434.908 387.851 419.619 377.817 404.044 370.878C413.902 379.696 439.061 414.902 435.181 427.641L434.452 426.767C437.765 417.99 418.559 387.597 411.843 380.321C409.437 377.715 405.737 374.297 403.209 371.545L402.537 371.738C402.431 373.271 403.939 374.231 405.092 375.216L403.454 376.997C404.421 379.215 406.567 380.701 406.544 381.518C406.322 389.558 419.304 401.607 414.923 407.855C413.319 408.637 411.626 409.872 410.258 408.914C408.174 407.455 404.188 405.345 402.492 403.672C401.754 400.169 400.699 400.49 399.076 397.694C395.78 392.019 394.902 390.386 388.275 389.594C382.549 385.364 385.323 386.058 378.192 387.059L376.172 385.578C372.964 386.233 372.267 387.909 369.143 388.048L368.102 387.352L368.434 386.809C368.949 386.765 369.463 386.721 369.978 386.676L370.526 384.668C371.72 384.111 371.103 384.23 372.373 384.279C372.499 382.834 372.37 380.757 373.213 380.011L374.326 380.42C379.553 372.705 371.635 369.102 373.57 364.86L376.092 364.941C376.478 363.673 376.4 364.143 376.334 362.811C377.143 362.302 377.9 361.82 378.561 361.125C378.995 358.824 378.902 359.59 378.285 357.585C377.445 354.857 378.394 349.059 378.803 346.17C377.987 345.976 378.419 345.953 377.526 346.411C365.248 335.33 350.877 346.984 340.832 343.387L340.424 344.549C339.387 344.257 335.241 343.153 334.638 342.593C332.422 340.53 331.097 336.288 327.923 335.733C326.068 338.221 327.75 341.514 327.968 344.585C327.217 343.881 327.548 344.267 327.253 343.047C324.703 345.332 326.58 346.594 324.799 348.073C322.972 347.161 321.791 346.181 319.924 346.584L319.745 347.292C323.272 349.589 362.236 375.602 362.609 376.084L362.593 377.083C359.297 379.07 353.79 373.673 349.261 375.741C348.051 377.542 348.466 376.549 348.268 378.939C349.333 381.201 350.354 383.482 351.331 385.782C352.263 385.702 351.788 385.82 352.74 385.369L353.02 385.764C354.002 387.122 354.096 387.373 355.566 388.266C358.275 388.387 358.268 387.323 360.019 388.25L360.361 389.173C362.387 389.411 364.597 386.931 366.699 386.558L367.288 387.174C366.814 388.633 365.926 389.988 364.345 390.371L363.002 389.526C362.726 391.886 363.885 391.661 363.083 394.245C361.681 395.757 361.355 395.609 361.019 397.301C361.644 398.248 362.073 399.25 361.594 400.335C359.605 404.838 365.684 408.765 360.469 412.245C358.16 410.645 359.472 410.208 357.102 409.336L356.332 410.01C356.694 411.256 357.214 411.609 358.111 412.575L357.724 413.223C353.82 413.793 350.8 412.469 350.117 412.965C350.2 416.896 352.65 425.143 352.256 426.558L351.282 427.34C351.318 427.541 355.365 436.106 355.742 436.667C357.66 439.526 371.27 441.203 363.743 447.584C360.316 447.726 360.086 443.756 357.058 442.247C355.447 442.459 355.837 442.53 354.366 443.854L354.12 444.873C356.373 446.176 357.702 445.256 358.89 446.293C356.844 450.279 348.911 447.602 344.393 448.881C346.715 452.076 343.533 458.742 340.187 460.725C332.271 465.416 336.218 468.269 337.947 474.809L337.273 475.697C336.086 475.816 335.393 475.894 334.283 476.326C335.399 477.282 337.915 477.36 339.174 476.621C339.191 475.75 339.216 474.879 339.247 474.008C344.246 473.869 348.446 473.105 353.652 473.272L355.384 472.317C355.365 472.328 357.118 471.382 356.865 471.411C368.174 470.114 372.328 472.572 371.459 482.971C370.481 484.306 369.951 484.452 368.193 484.037C368.293 486.269 365.415 488.914 363.584 489.529C362.875 488.612 362.865 488.387 361.916 487.828L361.806 487.203C361.145 486.713 360.478 486.231 359.806 485.756C360.292 484.871 360.578 484.63 360.702 483.635C357.324 478.492 351.96 487.049 349.139 486.147C345.004 484.825 336.788 487.598 336.668 492.661L338.982 493.054C338.885 495.488 337.971 495.161 338.881 497.709C341.704 501.536 359.379 503.127 363.8 501.165C364.985 500.639 364.861 500.257 366.598 500.148C367.882 501.762 367.628 500.9 367.735 502.688C365.225 505.163 361.177 502.757 359.134 504.014L358.52 503.498L357.662 504.027L356.992 503.497L356.141 504.021L355.529 503.51L353.595 503.768L354.369 504.906C355.178 504.739 354.843 504.91 355.405 504.461C355.527 505.481 355.607 505.037 355.305 505.812C358.275 506.106 361.281 507.153 364.153 507.993L364.484 508.609C364.993 509.544 364.789 509.184 365.406 510.16C366.733 509.931 367.473 508.971 368.5 508.012C371.719 508.789 370.082 510.386 373.949 508.958C387.832 503.831 402.95 502.986 417.643 503.374C420.66 503.454 424.231 502.863 426.76 503.383L426.87 504.094C424.964 504.366 419.65 504.011 417.414 503.957C409.878 503.777 403.754 503.472 396.26 504.507C391.443 505.191 386.662 506.103 381.932 507.24C379.581 507.829 368.297 511.443 366.792 511.414C364.22 511.036 346.36 513.829 341.645 514.403C310.68 517.944 279.764 521.903 248.906 526.281C236.161 527.973 221.116 529.036 208.929 531.235C250.935 516.166 293.142 501.663 335.539 487.731C344.524 484.79 353.72 482.215 362.661 479.242C349.001 478.997 333.599 477.434 319.748 476.587L236.999 471.974C223.474 471.255 208.031 470.039 194.724 469.753C201.589 467.962 209.456 466.918 216.531 465.822C228.186 464.024 239.85 462.286 251.523 460.607C271.359 457.563 291.234 454.774 311.142 452.239C326.947 450.103 341.698 447.957 357.587 446.67C323.258 439.777 287.725 431.134 253.528 423.317C235.785 419.261 214.618 414.88 197.291 410.014C232.398 409.351 268.865 410.842 304.106 411.194C318.539 411.338 345.058 410.81 357.828 412.677C327.569 399.403 297.191 386.403 266.698 373.679C250.11 366.634 232.206 359.356 216.046 351.454C227.562 353.542 239.927 354.992 251.706 356.941C275.888 360.971 300.033 365.224 324.137 369.698C334.5 371.555 351.381 373.828 360.743 376.177C337.298 360.201 313.735 344.398 290.055 328.771C274.782 318.722 259.825 309.26 244.865 298.663C276.829 309.005 308.663 319.743 340.361 330.874C352.175 335.025 364.577 338.846 376.246 343.398L325.282 294.279C314.819 284.373 294.919 266.262 285.767 255.818C300.135 264.297 319.549 273.422 334.817 281.098L398.974 313.665C394.984 308.81 390.427 301.816 386.736 296.499L366.874 267.848C355.43 251.164 343.489 235.491 332.088 218.31C356.438 236.892 380.544 255.791 404.4 275.002C412.674 281.692 421.908 287.975 429.535 295.262C422.835 281.548 416.384 265.186 410.502 250.978C401.919 230.244 392.518 209.153 384.144 188.43C400.755 207.751 417.119 227.283 433.232 247.022C440.369 255.622 454.12 271.2 459.498 280.054C458.318 274.544 457.706 268.434 457.144 262.807C454.386 235.188 450.864 207.679 447.533 180.128C447.007 175.782 446.673 171.282 445.676 167.024C449.456 173.12 453.767 183.011 456.852 189.731C462.877 202.588 468.665 215.555 474.214 228.624C480.688 243.571 488.161 258.731 494.289 273.694C495.442 263.866 497.547 253.255 499.08 243.33C501.828 225.63 504.482 207.916 507.044 190.189C508.47 180.892 510.778 168.454 511.586 159.329Z"/><path fill="#FED501" d="M506.404 655.553L516.903 655.463L516.964 738.008C516.96 742.983 516.348 776.401 517.793 779.09C515.949 798.034 513.724 820.377 512.682 839.275C511.388 833.931 510.557 825.964 509.888 820.303C508.555 808.245 507.316 796.178 506.172 784.101C507.53 780.482 506.283 668.693 506.404 655.553Z"/><path fill="#FEBF02" d="M596.093 614.448C595.214 616.266 593.489 618.526 592.341 620.238C581.281 636.732 569.28 652.501 557.488 668.467C555.016 671.814 552.675 675.071 549.912 678.193C550.253 676.959 552.422 672.875 553.307 672.234C556.579 669.866 558.665 664.633 561.02 661.888C565.252 656.953 568.472 652.273 572.306 647.041C578.745 638.301 585 629.426 591.067 620.423C598.797 609.091 601.2 605.24 611.243 595.427C627.848 578.729 645.248 563.429 666.815 553.24C680.621 546.718 696.452 545.521 711.238 550.706C714.217 551.75 721.454 555.071 722.66 557.853L722.687 558.588L716.381 556.356C717.901 556.196 718.144 556.148 719.647 556.291L718.783 555.826C716.455 554.558 714.752 553.079 712.178 552.269C708.189 551.013 704.202 549.425 700.085 548.647C687.628 546.29 673.867 550.466 662.824 556.046C608.872 583.303 607.858 625.988 573.225 666.159L596.928 615.382L596.093 614.448Z"/><path fill="#EE9E01" d="M596.093 614.448C598.117 611.242 599.708 608.548 602.195 605.672C600.522 608.953 598.766 612.191 596.928 615.382L596.093 614.448Z"/><path fill="#FED501" d="M605.533 525.942C618.742 520.733 627.262 517.897 641.882 517.41C649.956 517.079 658.042 517.67 665.983 519.173C674.835 520.816 683.281 523.719 691.947 526.105C692.278 525.969 692.609 525.833 692.939 525.697C712.075 535.546 730.362 548.747 747.47 561.669C756.089 568.179 766.61 574.885 774.83 581.677C757.604 573.72 739.871 566.45 722.687 558.588L722.66 557.853C724.855 557.573 730.093 562.875 729.292 550.465C729.108 547.621 699.161 530.049 695.15 528.199C691.666 526.592 682.127 524.08 678.65 523.091C658.883 517.469 636.593 515.581 617.051 522.675C615.09 523.386 612.43 523.27 610.277 524.311C602.526 528.058 607.946 537.041 605.04 544.083L604.779 543.752C605.576 538.306 605.552 531.508 605.533 525.942Z"/><path fill="#FED501" d="M328.436 527.158C331.056 527.288 337.076 525.203 339.638 524.204C365.122 514.269 392.358 516.129 417.371 526.357C416.938 531.744 417.859 537.075 417.417 542.235C417.224 540.014 416.608 527.633 416.024 526.415C411.945 524.624 408.179 523.794 404.399 522.092C401.041 520.58 399.105 521.302 396.194 520.579C378.308 516.136 355.552 518.487 338.528 525.095C334.639 526.605 327.174 528.359 324.102 530.226C310.867 538.265 297.627 546.907 285.326 556.352C287.09 557.949 289.253 560.093 291.241 561.282C294.065 560.478 295.909 559.486 298.59 558.39C298.999 559.207 298.923 558.952 298.987 559.301C298.024 559.893 287.595 564.39 285.81 565.196C273.84 570.631 261.816 575.944 249.74 581.137C258.255 574.215 266.952 568.722 275.633 562.273C289.018 552.329 302.079 542.306 316.428 533.698C319.619 531.784 325.093 528.273 328.436 527.158Z"/><path fill="#FED501" d="M422.678 448.693C414.89 439.383 393.431 415.324 381.232 415.564C379.967 414.486 380.352 415.164 380.173 413.392C381.011 411.96 380.417 412.371 381.724 411.78C382.825 412.224 382.765 412.164 383.519 413.074C385.324 412.877 384.69 413.289 385.659 412.102C386.295 406.19 389.066 408.402 391.969 406.514C393.271 407.289 394.208 408.553 394.57 410.024C394.668 410.422 394.671 410.771 394.702 411.186L394.286 411.54C393.643 412.091 393.895 411.868 393.151 412.583C394.722 413.27 405.728 414.986 408.259 415.419C413.912 416.385 431.994 421.383 434.452 426.767C414.117 414.101 402.068 414.704 379.31 413.393C402.101 421.208 417.204 438.759 429.812 458.194L429.569 458.503C427.296 456.759 424.73 451.455 422.678 448.693Z"/><path fill="#FEBF02" d="M596.117 523.18C597.34 550.969 590.111 569.775 571.401 590.744C555.102 609.011 535.499 617.948 517.235 632.386C516.933 623.248 516.492 612.431 518.674 603.573C524.121 573.379 540.402 560.971 565.222 544.969C574.656 538.887 583.85 532.673 592.863 525.986C593.936 525.037 595.021 524.102 596.117 523.18Z"/><path fill="#FED501" d="M592.863 525.986C593.581 527.693 593.385 528.741 592.661 530.447C581.944 555.688 563.662 573.084 543.356 590.474C547.579 582.64 553.923 571.44 557.235 563.405C547.151 570.417 535.616 581.386 528.097 591.168C526.542 593.19 520.698 603.727 519.666 604.362L518.674 603.573C524.121 573.379 540.402 560.971 565.222 544.969C574.656 538.887 583.85 532.673 592.863 525.986Z"/><defs><linearGradient id="gradient_1" gradientUnits="userSpaceOnUse" x1="453.88644" y1="593.22083" x2="478.92981" y2="561.37701"><stop offset="0" stop-color="#FFB802"/><stop offset="1" stop-color="#FDD101"/></linearGradient></defs><path fill="url(#gradient_1)" d="M427.123 523.31C447.201 540.664 474.455 552.514 491.171 572.82C504.34 588.818 508.021 611.134 505.923 631.369L505.276 631.441C470.936 609.127 431.348 584.033 427.455 539.377C427.001 534.171 427.135 528.551 427.123 523.31Z"/><path fill="#FEBF02" d="M518.632 542.928C525.18 517.995 538.923 504.596 560.764 492.064C571.191 486.081 577.77 482.24 587.24 474.938L587.554 475.911C587.149 497.781 583.907 515.618 567.865 531.683C554.054 545.514 529.61 556.394 517.156 569.454C516.92 559.268 516.654 553.091 518.632 542.928Z"/><path fill="#FED501" d="M518.632 542.928C525.18 517.995 538.923 504.596 560.764 492.064C571.191 486.081 577.77 482.24 587.24 474.938L587.554 475.911L587.255 476.405C584.311 481.384 582.041 487.196 579.049 492.602C571.867 505.579 554.155 524.385 541.204 531.816C545.55 525.087 551.435 516.175 554.759 509.089C545.062 516.03 536.175 522.506 528.122 531.495C525.665 534.237 521.662 541.846 519.873 543.54L518.632 542.928Z"/><path fill="#FEBF02" d="M506.266 569.407C502.674 565.451 497.896 562.404 493.598 559.221C474.896 545.366 451.537 534.39 442.043 511.699C438.238 502.605 436.345 492.647 436.175 482.816C436.135 480.462 435.653 477.645 436.154 475.373L437.053 475.728C452.716 488.937 473.026 495.917 487.356 510.931C495.211 519.161 501.918 530.236 504.284 541.472C507.295 548.66 506.473 561.716 506.266 569.407Z"/><path fill="#FED501" d="M437.053 475.728C452.716 488.937 473.026 495.917 487.356 510.931C495.211 519.161 501.918 530.236 504.284 541.472L503.37 541.727C501.901 540.927 498.38 535.187 496.982 533.513C489.027 523.987 480.015 516.523 469.609 510.044C473.071 517.339 477.445 524.151 480.932 531.507C464.483 518.203 450.92 505.673 440.676 486.586C439.379 484.169 436.286 478.301 437.053 475.728Z"/><path fill="#FEBF02" d="M576.833 428.616L579.363 425.53C579.448 437.71 579.327 449.151 574.507 460.544C566.792 478.781 549.747 488.663 533.826 498.808C528.113 502.447 521.727 506.033 517.096 511.086C516.986 503.567 516.356 492.124 519.214 485.112C526.696 450.413 552.703 447.619 576.833 428.616Z"/><path fill="#FED501" d="M576.833 428.616C576.421 439.815 560.793 458.882 552.822 466.166C548.806 469.836 543.124 474.646 538.953 478.289C542.699 470.813 547.437 463.461 550.75 456.726C543.336 461.578 533.87 469.419 527.749 475.978C525.78 478.089 521.014 485.565 519.916 485.784L519.214 485.112C526.696 450.413 552.703 447.619 576.833 428.616Z"/><defs><linearGradient id="gradient_2" gradientUnits="userSpaceOnUse" x1="465.47238" y1="481.10107" x2="485.37244" y2="454.78159"><stop offset="0" stop-color="#FFB901"/><stop offset="1" stop-color="#FED202"/></linearGradient></defs><path fill="url(#gradient_2)" d="M443.658 426.24C447.542 428.036 453.634 434.722 457.641 436.858C493.27 455.85 506.859 467.432 506.38 510.747C494.73 500.658 478.763 492.827 466.669 482.999C452.072 471.136 444.728 455.933 444.335 437.229C444.263 433.83 444.18 430.255 443.745 426.869L443.658 426.24Z"/><path fill="#FED501" d="M511.341 283.934C512.098 285.02 521.118 309.229 522.37 312.65C526.818 324.806 529.51 345.523 522.68 357.322C519.237 363.27 515.545 368.521 512.179 375.203C510.626 373.918 501.374 357.447 500.295 354.983C489.989 331.453 502.801 306.168 511.341 283.934Z"/><path fill="#FEBF02" d="M566.897 387.113C568.062 385.782 567.484 385.952 568.823 385.551C571.386 390.213 569.274 405.585 567.811 411.011C560.902 436.635 533.18 442.521 517.125 457.427C517.011 449.576 516.729 441.457 519.28 433.916C522.329 421.21 531.132 409.729 542.232 403.202C551.77 397.594 558.168 394.053 566.897 387.113Z"/><path fill="#FED501" d="M566.897 387.113C568.928 392.285 561.414 402.284 558.63 406.362C552.581 415.222 543.791 420.144 536.43 427.428C538.653 422.879 540.824 418.305 542.941 413.706C536.736 418.776 530.123 423.477 524.728 429.323C523.105 431.083 521.324 433.747 519.28 433.916C522.329 421.21 531.132 409.729 542.232 403.202C551.77 397.594 558.168 394.053 566.897 387.113Z"/><defs><linearGradient id="gradient_3" gradientUnits="userSpaceOnUse" x1="471.17798" y1="432.15756" x2="488.54782" y2="409.69699"><stop offset="0" stop-color="#FFB701"/><stop offset="1" stop-color="#FDD102"/></linearGradient></defs><path fill="url(#gradient_3)" d="M454.514 386.149C455.041 386.401 455.181 386.4 455.594 386.78C469.591 399.684 488.863 403.217 498.638 420.885C506.128 434.425 506.53 442.193 506.367 456.745C485.337 443.132 457.776 430.564 454.659 403.042C454.112 398.213 454.82 391.421 454.514 386.149Z"/><path fill="#FEBF02" d="M555.919 345.061C557.095 346.456 556.048 354.749 555.892 356.759C553.8 383.724 536.42 395.862 516.709 411.444C516.144 404.152 515.587 398.562 516.576 391.383C520.86 360.297 535.578 361.053 555.919 345.061Z"/><defs><linearGradient id="gradient_4" gradientUnits="userSpaceOnUse" x1="478.85226" y1="386.15686" x2="497.76807" y2="368.34677"><stop offset="0" stop-color="#FFB802"/><stop offset="1" stop-color="#FED402"/></linearGradient></defs><path fill="url(#gradient_4)" d="M468.209 346.047C501.732 369.505 507.433 366.19 506.989 411.257C499.551 404.789 491.521 401.032 483.982 392.614C468.76 375.617 467.957 366.846 468.209 346.047Z"/><path fill="#FED501" d="M551.408 621.497L551.736 622.044C549.845 629.037 543.848 642.088 541.271 649.977C536.953 663.197 532.629 677.003 527.822 689.978L527.478 689.77C527.275 674.509 527.577 659.15 527.483 643.859C534.984 636.238 543.892 629.131 551.408 621.497Z"/><path fill="#FED501" d="M471.314 621.923C475.031 624.151 492.601 640.797 496.033 644.431C495.677 659.246 495.923 675.176 495.893 690.071C494.062 687.446 482.884 650.981 480.785 645.093C478.25 637.98 474.541 629.328 471.314 621.923Z"/><path fill="#FED501" d="M666.86 545.022L667.927 544.814L668.158 545.271C666.142 546.144 664.254 546.751 662.275 547.541C631.056 560.005 609.771 587.354 589.398 612.837C588.528 613.925 592.094 618.772 588.376 621.667C586.745 620.96 586.759 620.885 584.904 620.771C583.826 621.197 582.579 621.893 581.951 622.895C571.403 639.716 559.188 657.076 549.908 674.545C549.613 675.15 548.477 676.814 548.055 677.469C548.318 676.411 549.246 674.075 549.783 673.187C577.48 627.306 614.059 564.351 666.86 545.022Z"/><path fill="#FED501" d="M381.774 436.352L382.204 437.247C383.319 437.296 384.432 437.361 385.545 437.44C388.125 437.638 388.18 437.534 389.582 439.178C389.639 441.009 389.873 440.146 388.552 441.758C387.723 441.837 387.372 441.855 386.563 441.871C384.204 442.747 379.516 442.122 378.026 439.984C378.457 438.67 378.918 438.422 379.918 437.444C381.102 437.139 380.902 437.181 381.774 436.352Z"/><path fill="#FED501" d="M654.532 573.67C657.673 570.37 670.652 560.448 675.244 559.971C694.929 580.714 713.675 599.511 732.971 621.143C726.378 616.762 718.689 612.788 711.756 608.639C698.927 600.914 686.14 593.118 673.397 585.252C667.956 581.95 659.504 577.169 654.532 573.67Z"/><path fill="#FED501" d="M348.342 560.739C355.454 563.517 363.066 568.952 368.984 573.743C360.277 578.765 351.235 584.727 342.604 590.039C325.432 600.76 308.036 611.118 290.429 621.108C295.386 615.271 302.874 607.709 308.253 601.96C321.221 587.841 334.589 574.095 348.342 560.739Z"/><path fill="#FED501" d="M628.238 609.989C630.097 604.162 638.469 590.505 642.915 586.364C648.315 596.378 656.93 608.553 663.228 618.62C667.254 625.005 671.208 631.436 675.088 637.911C677.178 641.452 679.685 646.253 681.814 649.495L680.1 651.432C668.429 642.424 656.873 633.269 645.436 623.967C640.651 620.121 632.167 613.952 628.238 609.989Z"/><path fill="#FED501" d="M338.224 655.911C340.172 652.247 342.416 648.517 344.639 645.002C356.688 625.941 367.832 605.512 380.89 587.165C385.748 592.552 392.71 603.924 395.688 610.752C388.343 615.51 379.816 622.565 372.942 628.169C361.396 637.581 350.118 646.906 338.224 655.911Z"/><path fill="#FED501" d="M681.814 649.495L685.327 655.732L680.1 651.432L681.814 649.495Z"/></svg>